<svg width="24" height="24" viewBox="0 0 24 24" fill="none" xmlns="http://www.w3.org/2000/svg">
<rect width="24" height="24" fill="white"/>
<g clip-path="url(#clip0_135_823)">
<path fill-rule="evenodd" clip-rule="evenodd" d="M12.1667 3.00092C9.6346 3.00092 7.58195 5.05295 7.58195 7.58425C7.58195 10.1156 9.6346 12.1676 12.1667 12.1676C14.6987 12.1676 16.7514 10.1156 16.7514 7.58425C16.7514 5.05295 14.6987 3.00092 12.1667 3.00092ZM19.5022 16.5309L21.2352 20.0051C21.3783 20.2888 21.3641 20.6263 21.1979 20.8971C21.0316 21.1679 20.737 21.3333 20.4192 21.3343H3.91417C3.59636 21.3333 3.30172 21.1679 3.13547 20.8971C2.96922 20.6263 2.95507 20.2888 3.09809 20.0051L4.83111 16.5309C5.60842 14.9802 7.1948 14.001 8.92985 14.0009H15.4035C17.1385 14.001 18.7249 14.9802 19.5022 16.5309Z" fill="#323232"/>
</g>
<defs>
<clipPath id="clip0_135_823">
<rect width="18.3333" height="18.3352" fill="white" transform="translate(3 3)"/>
</clipPath>
</defs>
</svg>
